# xmcd CD database file
#
# Track frame offsets:
#	150
#	18292
#	35769
#	48805
#	62129
#	78176
#	91939
#	106748
#	119525
#	137512
#	156471
#	171989
#	187137
#	198733
#	210127
#	223085
#	238972
#	250429
#
# Disc length: 3509 seconds
#
# Revision: 2
# Processed by: cddbd v1.5.2PL0 Copyright (c) Steve Scherf et al.
# Submitted via: CDex 2.21
#
DISCID=040db312
DTITLE=Nancy Wood - Hold Me Tight
DYEAR=2018
DGENRE=Country
TTITLE0=Wild Flowers
TTITLE1=To Know Him Is to Love Him
TTITLE2=Hold Me Tight
TTITLE3=They Don't Make 'Em Like They Used to do
TTITLE4=Moonlightning
TTITLE5=Shame on Love
TTITLE6=Roll Back the Rug and Dance
TTITLE7=Married Man
TTITLE8=The Fighter
TTITLE9=Love Is Never out of Style
TTITLE10=Someone to Give My Love To
TTITLE11=Lady Luck
TTITLE12=Fort Worth I Love You
TTITLE13=Lyin' Cheatin' Woman Chasin' Honky Tonkin' Whiskey Drinkin' You
TTITLE14=One More Hallelujah for the Road
TTITLE15=Blanket on the Ground
TTITLE16=A Little Love
TTITLE17=Could I Borrow Your Arms for Tonight
EXTD=YEAR: 2018
EXTT0=
EXTT1=
EXTT2=
EXTT3=
EXTT4=
EXTT5=
EXTT6=
EXTT7=
EXTT8=
EXTT9=
EXTT10=
EXTT11=
EXTT12=
EXTT13=
EXTT14=
EXTT15=
EXTT16=
EXTT17=
PLAYORDER=
